<svg width="71" height="80" viewBox="0 0 71 80" fill="none" xmlns="http://www.w3.org/2000/svg">
<path d="M0 23.0819V56.918C0 59.1216 1.1771 61.1575 3.08539 62.2568L32.4146 79.1737C34.3253 80.2754 36.6771 80.2754 38.5854 79.1737L67.9146 62.2568C69.8253 61.1551 71 59.1192 71 56.918V23.0819C71 20.8784 69.8229 18.8425 67.9146 17.7432L38.5854 0.826322C36.6747 -0.275441 34.3229 -0.275441 32.4146 0.826322L3.08539 17.7432C1.1771 18.8449 0 20.8808 0 23.0819Z" fill="#FF6B35"/>
<path d="M17.3856 26.2818C16.4027 25.3693 15.9088 24.2388 15.9088 22.8927C15.9088 21.5467 16.4003 20.3659 17.3856 19.4509C18.3685 18.5384 19.6391 18.0809 21.1926 18.0809C22.7461 18.0809 23.964 18.5384 24.9469 19.4509C25.9298 20.3659 26.4236 21.5131 26.4236 22.8927C26.4236 24.2723 25.9322 25.3669 24.9469 26.2818C23.964 27.1968 22.7101 27.6519 21.1926 27.6519C19.6751 27.6519 18.3709 27.1944 17.3856 26.2818ZM25.5941 31.5224V59.524H16.7383V31.5224H25.5941Z" fill="#212529"/>
<path d="M55.0745 34.2864C57.0044 36.3797 57.9681 39.2539 57.9681 42.9137V59.0305H49.5558V44.0514C49.5558 42.2071 49.0764 40.7724 48.1198 39.7497C47.1633 38.7294 45.8759 38.2168 44.2601 38.2168C42.6442 38.2168 41.3569 38.7294 40.4003 39.7497C39.4438 40.7724 38.9643 42.2047 38.9643 44.0514V59.0305H30.504V31.4457H38.9643V35.1031C39.8226 33.884 40.9757 32.9211 42.4285 32.2122C43.8789 31.5032 45.5139 31.1487 47.3263 31.1487C50.5579 31.1487 53.1399 32.1954 55.0697 34.2888L55.0745 34.2864Z" fill="#212529"/>
</svg>
