<svg width="71" height="80" viewBox="0 0 71 80" fill="none" xmlns="http://www.w3.org/2000/svg">
<path d="M0 23.0819V56.9181C0 59.1216 1.1771 61.1575 3.08539 62.2568L32.4146 79.1737C34.3253 80.2754 36.6771 80.2754 38.5854 79.1737L67.9146 62.2568C69.8253 61.1551 71 59.1192 71 56.9181V23.0819C71 20.8784 69.8229 18.8426 67.9146 17.7432L38.5854 0.826323C36.6747 -0.275441 34.3229 -0.275441 32.4146 0.826323L3.08539 17.7432C1.1747 18.8449 0 20.8808 0 23.0819Z" fill="#FF6B35"/>
<ellipse cx="35.0471" cy="39.498" rx="28.6568" ry="28.601" fill="#FF6B35"/>
<path d="M35.0472 10.897C19.2225 10.897 6.39032 23.6712 6.39032 39.4294C6.39032 52.036 14.6014 62.7311 25.9877 66.504C27.4198 66.768 27.9458 65.885 27.9458 65.1313C27.9458 64.4511 27.919 62.2032 27.9069 59.8191C19.9343 61.5451 18.252 56.4527 18.252 56.4527C16.9485 53.1547 15.0702 52.2779 15.0702 52.2779C12.4703 50.507 15.2662 50.5432 15.2662 50.5432C18.1439 50.7446 19.6592 53.4836 19.6592 53.4836C22.2151 57.8457 26.3631 56.5845 27.9984 55.8556C28.2555 54.0113 28.9983 52.7528 29.8177 52.0403C23.4528 51.3186 16.7615 48.8721 16.7615 37.9393C16.7615 34.8244 17.881 32.2789 19.7143 30.2808C19.4167 29.5621 18.4359 26.6602 19.9918 22.73C19.9918 22.73 22.3982 21.9631 27.8745 25.6547C30.1602 25.0223 32.6118 24.7055 35.0472 24.6947C37.4826 24.7055 39.936 25.0223 42.2262 25.6547C47.696 21.9631 50.099 22.73 50.099 22.73C51.6588 26.6602 50.6776 29.5621 50.38 30.2808C52.2173 32.2789 53.3292 34.8241 53.3292 37.9393C53.3292 48.898 46.6253 51.3112 40.2442 52.0174C41.2719 52.9029 42.1878 54.6394 42.1878 57.3012C42.1878 61.1188 42.1545 64.1915 42.1545 65.1313C42.1545 65.8906 42.6703 66.7803 44.1231 66.5002C55.5032 62.7231 63.7039 52.0318 63.7039 39.4294C63.7039 23.6712 50.8735 10.897 35.0472 10.897Z" fill="#264653"/>
<path d="M17.1232 51.5422C17.0603 51.6838 16.836 51.7263 16.6322 51.6292C16.4243 51.5361 16.3074 51.3428 16.3748 51.2005C16.4366 51.0546 16.6609 51.0138 16.8684 51.1118C17.0767 51.2047 17.1954 51.3998 17.1232 51.5422ZM18.5329 52.7944C18.3962 52.9206 18.129 52.862 17.9476 52.6626C17.7602 52.4637 17.7251 52.1978 17.8638 52.0696C18.0047 51.9436 18.2638 52.0025 18.4517 52.2016C18.6392 52.4028 18.6756 52.6671 18.5327 52.7946L18.5329 52.7944ZM19.5 54.3966C19.3242 54.5182 19.037 54.4043 18.8597 54.1505C18.6841 53.897 18.6841 53.5926 18.8635 53.4707C19.0415 53.3487 19.3242 53.4584 19.504 53.7101C19.6793 53.9681 19.6793 54.2725 19.4998 54.3969L19.5 54.3966ZM21.1353 56.2524C20.9782 56.4247 20.6437 56.3786 20.3988 56.1432C20.1484 55.9132 20.0785 55.5867 20.236 55.4141C20.3949 55.2414 20.7314 55.29 20.9782 55.5234C21.227 55.7529 21.3029 56.0819 21.1355 56.2524H21.1353ZM23.2488 56.879C23.1798 57.1023 22.8575 57.2039 22.533 57.109C22.2089 57.0112 21.9967 56.7494 22.0622 56.5236C22.1296 56.2987 22.4532 56.1929 22.7802 56.2945C23.1039 56.3918 23.3165 56.6516 23.2491 56.879H23.2488ZM25.6546 57.1446C25.6627 57.38 25.3874 57.5751 25.0466 57.5794C24.7039 57.5868 24.4268 57.3963 24.4232 57.165C24.4232 56.9273 24.6922 56.734 25.0347 56.7284C25.3754 56.7217 25.6546 56.9108 25.6546 57.1446ZM28.0176 57.0544C28.0585 57.284 27.8216 57.5199 27.4834 57.5825C27.1508 57.6429 26.8428 57.5013 26.8004 57.2737C26.759 57.0383 27.0004 56.8027 27.3324 56.7416C27.6713 56.683 27.9745 56.821 28.0176 57.0544Z" fill="#264653"/>
</svg>
